<?xml version="1.0" standalone="no"?>
<!DOCTYPE svg PUBLIC "-//W3C//DTD SVG 20010904//EN"
 "http://www.w3.org/TR/2001/REC-SVG-20010904/DTD/svg10.dtd">
<svg version="1.0" xmlns="http://www.w3.org/2000/svg"
 width="450.000000pt" height="344.000000pt" viewBox="0 0 450.000000 344.000000"
 preserveAspectRatio="xMidYMid meet">
<metadata>
Created by potrace 1.10, written by Peter Selinger 2001-2011
</metadata>
<g transform="translate(0.000000,344.000000) scale(0.050000,-0.050000)"
fill="#6233e6" stroke="none">
<path d="M1540 6862 c0 -10 20 -14 45 -8 37 8 40 5 15 -14 -24 -18 -20 -20 20
-7 28 8 70 15 95 16 98 2 38 31 -65 31 -60 0 -110 -8 -110 -18z"/>
<path d="M1840 6865 c28 -5 55 -18 62 -28 6 -11 23 -5 37 12 23 27 15 31 -62
28 -55 -1 -69 -6 -37 -12z"/>
<path d="M2111 6858 c8 -12 35 -18 61 -13 27 5 48 1 48 -9 0 -10 9 -13 20 -6
38 23 -1 50 -72 50 -46 0 -66 -8 -57 -22z"/>
<path d="M2629 6849 c45 -34 71 -37 71 -9 0 31 156 24 174 -7 13 -22 23 -20
54 10 38 36 35 37 -150 36 -170 0 -184 -3 -149 -30z"/>
<path d="M3108 6857 c-5 -9 13 -22 41 -29 28 -7 51 -20 51 -30 0 -10 9 -18 20
-18 11 0 20 16 20 36 0 28 14 35 60 32 33 -2 60 4 60 14 0 21 -239 16 -252 -5z"/>
<path d="M3780 6849 c0 -29 185 -24 194 4 6 16 -25 22 -93 20 -56 -2 -101 -12
-101 -24z"/>
<path d="M4250 6860 c22 -10 83 -12 135 -6 69 8 95 4 95 -14 0 -18 7 -19 25
-4 24 20 330 15 390 -6 14 -5 25 4 25 20 0 25 -56 29 -355 28 -211 -1 -339 -9
-315 -18z"/>
<path d="M5340 6858 c0 -23 58 -38 70 -18 6 10 24 13 41 7 16 -6 29 -1 29 11
0 14 -28 21 -70 19 -38 -3 -70 -11 -70 -19z"/>
<path d="M5532 6843 c21 -20 43 -30 48 -21 6 9 29 13 50 10 22 -4 46 3 53 14
8 13 34 12 74 -2 50 -17 59 -16 50 7 -14 37 -167 40 -167 4 -1 -17 -7 -15 -20
5 -18 27 -22 27 -40 0 -13 -20 -19 -22 -20 -5 0 14 -15 25 -33 25 -30 0 -29
-4 5 -37z"/>
<path d="M5861 6865 c2 -52 56 -87 69 -45 8 26 25 39 41 32 15 -5 33 -2 40 9
6 11 -23 19 -70 19 -44 0 -81 -7 -80 -15z"/>
<path d="M6102 6845 c1 -21 5 -25 11 -10 15 37 47 31 47 -9 0 -29 4 -29 29 5
27 35 30 36 30 4 1 -19 15 -35 31 -35 36 0 39 -23 6 -56 -13 -13 -25 -71 -26
-130 -2 -59 -10 -118 -19 -133 -16 -26 -17 -145 -2 -286 7 -70 -3 -85 -54 -77
-8 1 -15 -8 -15 -20 0 -12 14 -17 30 -11 17 7 30 2 30 -10 0 -11 -19 -26 -41
-32 -30 -7 -37 -19 -26 -43 26 -55 10 -386 -20 -416 -7 -7 -13 -38 -13 -68 0
-31 -10 -62 -21 -69 -12 -7 -17 -26 -11 -41 6 -16 -7 -60 -29 -99 -33 -60 -35
-72 -9 -82 16 -6 25 -19 19 -28 -21 -34 -21 -158 0 -167 12 -5 11 -9 -4 -10
-16 -1 -25 -34 -25 -92 0 -70 -7 -90 -32 -90 -26 0 -30 -13 -21 -61 7 -34 3
-104 -9 -155 -11 -52 -24 -139 -28 -194 -15 -215 -37 -361 -57 -374 -14 -9
-12 -31 8 -68 23 -42 23 -56 4 -63 -32 -11 -33 -119 -1 -130 14 -4 17 -18 6
-35 -9 -14 -18 -75 -20 -135 -2 -65 -14 -115 -29 -125 -15 -9 -21 -30 -15 -48
9 -23 1 -32 -32 -32 -33 -1 -37 -5 -16 -18 18 -12 23 -35 14 -72 -9 -33 -4
-66 12 -85 23 -28 20 -30 -19 -20 -37 9 -45 3 -45 -37 0 -28 12 -48 28 -48 21
0 27 -39 25 -180 -2 -137 -9 -178 -28 -171 -20 8 -21 1 -5 -28 12 -24 13 -56
2 -85 -21 -56 -22 -61 -22 -135 0 -33 -12 -71 -27 -85 -23 -22 -23 -33 2 -71
20 -31 22 -45 6 -45 -13 0 -18 -9 -11 -20 7 -11 1 -20 -13 -20 -19 0 -19 -6
-2 -23 18 -18 16 -29 -9 -47 -21 -16 -26 -33 -15 -52 30 -48 -13 -258 -53
-258 -10 0 -18 -10 -18 -21 0 -13 17 -16 40 -9 47 15 51 4 11 -36 -38 -38 -62
-134 -34 -134 12 0 17 13 11 28 -6 15 -3 33 6 39 28 17 29 -109 1 -142 -14
-17 -27 -86 -30 -153 -10 -225 -26 -442 -35 -467 -12 -35 -70 -31 -70 5 0 27
-23 38 -63 33 -7 -1 -25 13 -40 31 -15 19 -17 28 -4 20 37 -22 50 48 18 97
-22 34 -24 48 -6 54 18 6 15 18 -9 42 -20 20 -38 25 -46 13 -7 -11 -5 -20 4
-20 9 0 4 -8 -11 -18 -21 -13 -24 -54 -12 -191 13 -160 47 -208 49 -71 1 49 2
49 31 10 17 -22 39 -41 50 -42 10 -2 27 -4 38 -5 10 -2 17 -21 15 -43 -1 -25
-13 -37 -28 -31 -14 5 -26 5 -26 -1 0 -5 26 -19 57 -30 34 -12 75 -52 101 -99
28 -49 59 -79 83 -79 22 0 39 -9 39 -20 0 -11 14 -20 30 -20 17 0 30 -10 30
-22 0 -17 8 -17 28 0 34 28 194 16 442 -35 55 -11 104 -16 108 -11 5 4 26 -7
47 -26 30 -27 41 -29 53 -8 21 33 43 32 64 -1 13 -21 25 -22 55 -3 21 12 59
20 85 15 100 -16 169 -35 191 -53 14 -11 26 -9 31 6 10 30 136 4 136 -29 0
-14 8 -12 19 6 15 24 23 24 49 2 23 -19 39 -20 58 -5 15 13 37 15 54 4 15 -9
37 -12 47 -5 12 7 14 -3 6 -26 -14 -34 -12 -34 21 -6 41 36 109 41 129 10 9
-14 24 -12 44 4 23 19 33 20 44 1 11 -17 6 -19 -13 -8 -16 10 -21 9 -12 -2 10
-10 61 -19 115 -21 54 -2 109 -11 122 -19 14 -9 75 -15 136 -15 77 0 118 -10
135 -32 22 -28 25 -27 25 6 1 30 7 33 29 15 22 -18 31 -18 39 2 8 20 14 20 30
-3 12 -17 27 -23 35 -15 8 8 36 0 61 -16 26 -17 47 -22 47 -11 0 28 294 7 361
-26 36 -19 65 -21 88 -8 19 10 39 13 46 7 6 -7 1 -12 -12 -12 -13 0 -23 -9
-23 -20 0 -27 66 -25 128 3 38 17 58 17 78 0 37 -30 74 9 74 79 0 63 3 63
-420 108 -554 58 -842 90 -1280 140 -247 29 -603 69 -790 91 -187 21 -385 47
-440 58 -55 11 -154 23 -220 28 -66 4 -135 14 -153 22 -32 13 -64 151 -35 151
7 0 18 52 24 115 5 63 33 295 62 515 90 703 97 768 85 799 -6 16 -3 35 8 42
10 6 19 39 19 74 0 34 13 161 30 283 16 122 48 357 70 522 22 165 49 399 60
520 26 283 45 428 107 820 28 176 56 379 63 450 7 72 35 270 62 440 28 171 58
373 68 450 34 272 100 761 109 815 l10 55 -169 0 c-149 0 -170 -4 -168 -35z"/>
<path d="M7111 6835 c-54 -244 -246 -1503 -271 -1775 -10 -104 -24 -219 -32
-255 -13 -64 5 -79 77 -67 8 1 15 -34 15 -78 0 -85 -19 -100 -61 -49 -52 63
-88 -127 -239 -1301 -33 -253 -69 -514 -80 -580 -11 -66 -38 -259 -61 -430
-22 -170 -53 -397 -70 -502 -41 -269 -39 -305 10 -274 21 13 33 33 27 43 -8
12 29 14 96 6 59 -7 124 -13 143 -13 19 0 35 -13 35 -30 0 -34 92 -43 103 -10
9 26 314 -13 352 -44 13 -11 48 -15 77 -7 85 21 328 -9 328 -42 0 -32 82 -37
112 -7 22 22 328 -13 328 -38 0 -7 84 -14 187 -15 144 -1 199 -10 242 -38 40
-27 64 -31 88 -16 20 13 79 15 153 5 66 -8 138 -16 160 -17 30 -1 33 -6 13
-18 -18 -12 -8 -21 37 -30 85 -17 119 20 115 125 -2 56 -9 72 -20 52 -51 -91
-83 27 -56 207 43 284 46 340 24 403 -19 53 -17 60 18 60 35 0 39 15 39 140 0
149 -1 151 -62 119 -53 -28 -75 29 -30 78 17 20 32 51 32 70 0 18 9 33 20 33
11 0 14 -26 7 -60 -8 -38 -4 -60 11 -60 16 0 21 117 19 405 l-2 405 -27 -180
c-71 -465 -135 -605 -244 -533 -37 24 19 365 106 643 35 116 71 242 80 280 27
126 -12 48 -61 -123 l-48 -167 12 120 c16 150 53 259 89 263 15 1 44 3 63 5
30 2 35 23 35 139 l0 137 -60 2 c-56 1 -60 -4 -60 -68 0 -103 -41 -251 -68
-242 -14 5 -21 60 -18 151 4 130 0 143 -35 143 -31 0 -39 -15 -41 -75 -3 -111
-27 -188 -42 -135 -6 22 -9 67 -6 100 2 33 6 84 7 113 3 47 123 128 123 82 0
-6 23 9 50 35 l50 47 2 -49 c2 -36 5 -39 12 -12 5 21 21 33 34 27 14 -5 25 3
25 19 0 42 -145 38 -161 -4 -10 -27 -18 -28 -43 -7 -25 20 -26 29 -5 42 20 12
17 17 -9 19 -19 2 -42 5 -50 7 -107 26 -200 40 -545 80 -159 18 -394 51 -521
72 -127 21 -276 44 -332 50 -386 43 -499 92 -445 193 28 53 47 45 78 -34 44
-111 80 -78 80 72 0 65 -7 78 -40 78 -22 0 -40 -13 -40 -30 0 -17 -18 -30 -40
-30 -40 0 -39 3 9 98 42 83 49 125 49 289 0 106 11 230 23 277 13 47 26 103
30 123 4 20 18 49 30 64 12 15 18 59 13 99 -6 40 0 82 13 96 13 13 23 63 23
111 0 48 7 91 15 96 9 5 11 17 5 27 -5 9 2 76 18 148 15 73 20 137 12 142 -23
14 25 110 54 110 48 0 45 -47 -35 -561 -44 -289 -78 -539 -75 -557 4 -18 19
45 34 138 130 831 174 1060 204 1060 40 0 38 -62 -12 -411 -50 -352 -201
-1366 -220 -1474 -9 -57 36 -81 57 -30 8 20 10 20 11 0 3 -45 42 -26 42 21 0
41 8 45 70 38 62 -7 68 -14 58 -56 -14 -55 -4 -60 147 -75 101 -11 105 -9 105
38 0 27 -8 49 -17 49 -22 0 -3 106 21 122 10 6 21 33 24 60 3 26 16 84 28 128
12 44 41 211 64 370 47 325 55 360 61 260 l4 -70 17 80 c45 217 74 500 51 515
-16 11 -13 23 11 42 40 31 82 373 55 446 -11 30 -9 47 7 52 17 6 18 16 3 37
-12 15 -23 64 -24 108 -2 75 -1 77 14 20 l16 -60 6 60 c3 33 5 71 4 85 0 14
12 25 27 25 18 0 29 24 29 65 2 54 5 59 19 25 12 -29 18 -8 19 75 l1 115 -85
0 c-84 0 -85 -1 -87 -73 -3 -111 -118 -211 -234 -203 l-84 6 6 80 c3 44 10
105 16 135 l11 55 -221 0 c-213 0 -222 -2 -231 -45z m226 -24 c5 -28 -2 -32
-40 -20 -64 19 -71 28 -36 50 39 25 67 13 76 -30z m83 -327 c0 -153 -37 -211
-98 -156 -29 27 -36 45 -22 62 11 13 14 54 7 90 -10 51 -5 72 24 93 71 52 89
34 89 -89z m160 17 c0 -19 -18 -51 -40 -71 -45 -41 -50 -25 -27 88 13 68 67
54 67 -17z m274 -56 c-7 -52 -18 -140 -24 -195 -7 -55 -38 -262 -70 -460 -32
-198 -63 -405 -71 -460 -7 -55 -29 -194 -49 -310 -20 -115 -43 -274 -51 -352
l-14 -142 -177 -57 c-215 -68 -201 -86 -158 191 101 655 142 933 170 1160 37
291 66 419 98 423 12 2 31 5 42 8 11 2 31 5 45 7 14 1 23 9 21 17 -9 30 69
124 91 111 15 -9 14 -3 -2 17 -20 25 -13 35 45 63 39 18 70 42 70 54 0 11 10
20 23 20 15 0 18 -31 11 -95z m-604 -245 c0 -17 -20 -31 -45 -32 -50 -3 -50
-4 -32 41 15 40 77 32 77 -9z m-267 -1992 l89 -12 -44 -300 c-25 -165 -48
-302 -51 -305 -4 -3 -50 -10 -102 -16 -89 -9 -143 13 -103 42 10 7 20 36 23
63 3 28 7 61 9 75 1 14 11 25 22 25 10 0 14 27 7 60 -8 38 -4 60 10 60 15 0
14 10 -3 30 -17 20 -18 30 -3 30 19 0 19 86 0 216 -7 49 5 51 146 32z m127
-302 c-41 -276 -54 -429 -32 -376 9 22 33 171 52 330 43 348 31 330 209 293
178 -37 172 -30 145 -158 -12 -58 -27 -163 -34 -235 -7 -71 -25 -206 -41 -300
-15 -93 -50 -350 -79 -570 -61 -476 -168 -1231 -179 -1263 -7 -20 -67 -13
-209 26 -20 6 -24 28 -14 82 18 103 64 403 112 722 34 225 54 514 26 368 -5
-25 -17 -45 -28 -45 -11 0 -15 -38 -9 -89 9 -76 5 -93 -29 -111 -30 -16 -39
-16 -35 2 3 12 -6 27 -20 32 -17 6 -25 -12 -25 -57 1 -49 6 -59 19 -38 28 44
33 22 19 -79 -11 -81 -12 -83 -15 -21 -5 115 -37 43 -61 -139 -13 -93 -28
-195 -34 -225 -6 -30 -3 -55 7 -55 9 0 28 25 41 55 l23 55 -10 -60 c-6 -33
-28 -72 -50 -87 -41 -29 -53 -83 -19 -83 11 0 20 -14 20 -31 0 -17 -9 -26 -20
-19 -20 12 -25 -10 -28 -108 -1 -27 -15 -52 -32 -57 -22 -6 -23 -3 -5 9 19 14
18 27 -5 60 -30 42 -75 49 -104 17 -9 -10 -3 -10 12 -1 19 11 24 9 14 -7 -51
-83 -135 7 -110 118 19 84 37 232 47 395 6 101 31 173 31 92 1 -28 5 -31 18
-11 24 38 101 -12 104 -67 3 -59 33 76 58 260 37 275 40 292 59 329 11 20 14
41 8 47 -17 17 55 475 73 464 8 -5 12 27 9 72 -4 52 3 84 20 90 14 6 32 57 39
114 30 241 82 541 88 510 4 -19 -8 -132 -26 -250z m476 149 l-7 -65 30 60 c30
57 31 53 20 -100 -6 -87 -19 -164 -28 -170 -17 -11 -32 -116 -52 -360 -7 -82
-20 -208 -31 -280 -59 -411 -134 -1050 -125 -1065 6 -9 2 -28 -9 -41 -10 -13
-25 -68 -33 -121 -8 -53 -18 -116 -23 -140 -4 -24 -12 -65 -17 -91 -13 -65
-51 -103 -51 -51 -1 33 -4 34 -20 9 -26 -40 -26 -9 0 152 24 149 76 526 180
1311 43 326 92 685 109 798 17 113 31 209 31 213 0 3 7 6 17 6 9 0 13 -29 9
-65z m464 5 c7 -11 4 -20 -6 -20 -10 0 -29 -83 -43 -185 -14 -102 -37 -261
-52 -355 -15 -93 -37 -255 -49 -360 -12 -104 -29 -230 -39 -280 -18 -90 -53
-351 -71 -520 -21 -202 -51 -415 -69 -490 -11 -44 -25 -118 -32 -165 -7 -47
-21 -85 -32 -85 -11 0 -14 18 -7 40 8 25 4 40 -11 40 -16 0 -21 23 -13 70 6
38 4 70 -6 70 -10 0 -20 -29 -24 -65 -4 -48 -15 -64 -41 -62 -19 1 -35 -9 -35
-24 0 -27 -72 -29 -115 -2 -39 24 15 459 66 526 26 35 28 34 28 -14 1 -28 -9
-61 -20 -72 -12 -12 -23 -77 -25 -144 -1 -69 -12 -123 -23 -124 -12 0 -4 -10
16 -22 27 -15 43 -15 60 4 18 19 17 22 -2 11 -14 -8 -25 -5 -25 7 0 11 7 21
16 21 9 0 17 27 17 60 0 33 -8 60 -17 60 -9 0 -16 10 -16 21 0 12 9 16 19 9
24 -14 35 33 52 219 7 76 21 160 31 185 13 35 10 46 -13 46 -17 0 -35 -13 -42
-30 -6 -16 -19 -30 -28 -30 -21 0 2 148 24 157 9 3 11 28 5 55 -7 26 -3 48 7
48 11 0 26 96 34 215 8 120 36 301 64 409 28 107 44 205 36 218 -10 15 -7 19
8 10 15 -9 23 2 23 33 0 26 9 56 19 66 13 13 10 47 -7 97 -26 75 3 244 57 330
61 99 125 -5 80 -130 -25 -71 -27 -73 -28 -23 -1 30 -10 55 -21 55 -11 0 -20
-13 -20 -28 0 -16 -11 -33 -25 -39 -15 -6 -11 -10 10 -11 21 -1 35 -18 35 -42
0 -22 10 -40 21 -40 12 0 17 -8 11 -17 -19 -30 -67 -518 -78 -783 -4 -104 -7
-110 -62 -120 l-58 -10 53 -28 c29 -16 53 -43 54 -60 1 -77 34 34 47 158 17
157 48 403 60 465 5 25 18 114 30 198 11 85 30 211 41 280 11 70 21 134 21
142 0 8 14 15 30 15 17 0 30 14 30 30 0 34 31 40 50 10z m245 -50 c91 -15 95
-20 65 -99 -10 -28 -15 -51 -9 -51 5 0 19 23 29 51 11 28 29 46 40 39 11 -7
20 6 20 29 0 23 13 41 30 41 17 0 30 -9 30 -20 0 -11 27 -20 60 -20 35 0 60
-11 60 -25 1 -72 -87 -573 -99 -566 -8 5 -13 -20 -12 -57 1 -40 -7 -65 -23
-65 -13 0 -20 7 -14 16 6 10 2 17 -8 17 -11 0 -24 -17 -29 -39 -8 -28 -2 -35
20 -26 24 9 29 0 21 -42 -23 -118 20 -42 82 147 36 110 74 200 84 200 26 0 24
-9 -32 -165 -58 -159 -250 -787 -250 -816 0 -10 14 -19 32 -19 26 0 31 -21 25
-123 -7 -121 -6 -123 53 -145 80 -29 83 -117 19 -472 -3 -16 -11 -79 -19 -140
-20 -164 -27 -182 -66 -164 -19 9 -90 15 -157 15 -120 -1 -197 75 -124 121 10
6 17 37 17 69 0 42 10 59 34 59 30 0 30 3 2 25 -28 23 -28 40 0 175 17 83 31
218 31 300 0 83 5 128 10 100 10 -54 36 84 103 541 81 561 141 950 150 974 5
14 1 25 -8 25 -9 0 -32 -101 -51 -225 -19 -124 -47 -301 -61 -395 -15 -93 -38
-250 -51 -347 -15 -115 -30 -168 -41 -150 -12 19 -18 9 -19 -33 -1 -33 -7 -48
-13 -34 -19 48 14 206 40 191 15 -9 14 -2 -2 18 -21 25 -22 52 -6 119 l21 86
-12 -100 c-6 -55 -4 -93 5 -85 8 9 17 94 19 190 2 96 10 238 18 315 20 189 1
160 -26 -40 -12 -88 -58 -407 -102 -710 -44 -302 -89 -622 -101 -710 -58 -431
-65 -461 -120 -454 -28 3 -84 7 -125 10 -86 5 -88 13 -54 234 10 72 32 216 48
320 31 205 107 671 170 1040 22 127 59 356 81 510 59 396 58 393 97 382 18 -5
71 -15 118 -22z m-635 -349 c0 -51 -43 -126 -61 -108 -14 14 -14 38 0 74 19
50 61 74 61 34z m1100 -136 c0 -29 -117 -716 -132 -774 -8 -33 -15 -96 -16
-140 -2 -80 -3 -81 -78 -79 -105 4 -106 -13 5 360 56 186 121 408 146 493 38
129 75 199 75 140z m-1869 -86 c17 -29 -60 -59 -92 -36 -22 15 -23 22 -4 30
14 6 21 18 15 27 -5 9 8 12 30 6 22 -6 45 -18 51 -27z m-92 -360 c-13 -8 -18
-25 -10 -37 27 -45 29 -100 2 -90 -20 8 -23 -8 -11 -71 8 -44 7 -81 -2 -81 -9
0 -11 -15 -4 -33 8 -22 4 -30 -16 -23 -15 5 -30 40 -32 78 -4 56 -2 61 14 28
13 -27 16 2 7 95 -8 90 -5 135 10 135 12 0 28 34 37 75 l16 75 6 -68 c4 -38
-4 -74 -17 -83z m1448 -522 l-15 -107 -14 80 c-7 44 -6 83 4 87 10 3 18 21 18
38 0 17 5 27 11 21 6 -6 4 -60 -4 -119z m-1467 72 c0 -17 -7 -27 -16 -22 -9 6
-12 -22 -7 -62 7 -61 3 -69 -26 -58 -19 7 -41 13 -48 13 -8 0 -11 34 -7 76 8
79 104 128 104 53z m1895 -258 c-10 -127 -10 -129 42 -135 33 -4 51 -17 47
-34 -5 -23 -1 -24 24 -4 34 29 33 16 -17 -228 -16 -77 -39 -212 -51 -299 -24
-183 -35 -199 -130 -200 -85 -1 -84 -13 -30 346 44 295 50 403 21 403 -18 0
-15 47 11 176 5 25 17 41 27 35 10 -7 24 7 31 29 25 77 35 39 25 -89z m-1171
-128 c-39 -10 -50 8 -34 58 l14 43 24 -47 c19 -38 19 -48 -4 -54z m1396 76 c0
-12 10 -15 22 -8 14 9 19 1 12 -23 -18 -61 -33 -151 -45 -258 -9 -83 -43 -274
-101 -565 -9 -45 -68 -65 -68 -23 0 12 17 109 39 215 36 182 101 605 101 658
0 14 9 25 20 25 11 0 20 -10 20 -21z"/>
<path d="M7303 4090 c-12 -29 -22 -81 -21 -116 0 -35 6 -53 11 -39 6 14 28 25
49 25 41 0 51 30 17 51 -11 7 -16 27 -10 46 19 61 -20 89 -46 33z"/>
<path d="M7031 3339 c-7 -68 -9 -127 -4 -132 16 -16 50 222 34 239 -9 9 -22
-39 -30 -107z"/>
<path d="M6973 2927 c-19 -20 -16 -123 5 -136 10 -6 17 9 17 34 -1 25 5 61 14
80 15 34 -9 49 -36 22z"/>
<path d="M7602 2677 c2 -59 7 -91 12 -72 11 42 46 47 46 6 0 -15 -9 -51 -20
-80 -12 -33 -12 -51 0 -51 11 0 20 -28 20 -61 0 -34 -7 -57 -16 -51 -9 5 -18
-53 -19 -129 -2 -109 3 -139 26 -139 20 0 29 22 29 71 0 43 8 66 20 59 11 -7
20 6 20 29 0 22 -9 41 -20 41 -11 0 -20 10 -20 21 0 12 9 16 20 9 14 -9 17 14
8 66 -9 57 -3 93 21 129 29 46 30 54 2 81 -17 17 -31 41 -31 54 0 12 -8 17
-19 11 -10 -6 -21 13 -25 42 -12 107 -56 77 -54 -36z"/>
<path d="M7700 2122 c0 -21 -13 -43 -30 -49 -37 -15 -39 -100 -3 -130 22 -18
27 -10 29 41 1 47 -4 56 -17 35 -15 -24 -18 -23 -19 6 0 19 14 35 30 35 19 0
30 19 30 50 0 28 -4 50 -10 50 -5 0 -10 -17 -10 -38z"/>
<path d="M7634 1894 c-7 -18 -24 -29 -39 -23 -16 6 -26 -5 -26 -29 0 -30 6
-35 25 -19 14 12 39 16 56 10 33 -13 35 -3 12 56 -13 34 -16 34 -28 5z"/>
<path d="M8400 2969 c0 -17 -7 -27 -16 -21 -9 5 -19 -30 -21 -79 -5 -97 8
-114 35 -44 34 91 46 175 24 175 -12 0 -22 -14 -22 -31z"/>
<path d="M8293 2042 c-21 -107 -17 -142 17 -129 16 6 25 18 20 27 -6 9 -2 20
7 23 9 4 7 38 -6 76 l-24 70 -14 -67z"/>
<path d="M3480 6808 c0 -7 20 -36 45 -66 46 -54 90 -75 79 -37 -3 11 12 15 35
9 23 -5 41 -2 41 9 0 11 9 14 20 7 11 -7 20 -3 20 9 0 11 -22 21 -49 21 -27 0
-54 9 -60 19 -7 11 -25 15 -40 9 -15 -6 -33 -1 -40 11 -14 22 -51 29 -51 9z"/>
<path d="M4157 6779 c26 -21 40 -40 30 -40 -28 -3 60 -36 98 -38 61 -2 38 30
-56 75 -111 54 -134 55 -72 3z"/>
<path d="M3368 6774 c-12 -14 -16 -42 -8 -63 16 -46 120 -62 120 -18 0 17 10
24 25 16 14 -8 -1 10 -33 39 -66 59 -73 61 -104 26z"/>
<path d="M4599 6729 c-28 -34 -29 -32 47 -65 32 -14 50 -34 43 -46 -10 -15 -1
-15 29 1 49 26 56 61 12 61 -16 0 -30 7 -30 15 0 38 -76 63 -101 34z"/>
<path d="M549 6671 c-66 -101 8 -181 186 -199 106 -11 125 -8 125 19 0 53 109
29 116 -26 4 -28 21 -45 43 -45 34 0 33 8 -10 115 -59 144 -72 148 -137 36
-54 -91 -92 -117 -92 -61 0 17 -9 30 -20 30 -11 0 -20 -9 -20 -20 0 -26 -72
-26 -121 1 -39 21 -49 69 -27 127 16 42 105 41 151 -1 35 -31 37 -31 37 7 0
32 -17 44 -75 53 -113 19 -122 17 -156 -36z"/>
<path d="M1118 6624 c26 -19 21 -112 -11 -195 -8 -21 4 -29 45 -29 44 0 51 5
32 24 -43 43 -29 82 26 71 32 -6 50 0 50 16 0 15 -16 21 -40 15 -31 -8 -40 -1
-40 32 0 47 90 62 106 17 5 -14 16 -18 25 -10 29 28 -20 54 -122 66 -67 8 -90
6 -71 -7z"/>
<path d="M1357 6520 c4 -45 -3 -94 -17 -110 -19 -23 -14 -31 26 -41 74 -18
160 -3 170 31 7 24 4 25 -17 5 -49 -46 -119 -31 -119 26 0 44 5 48 39 30 52
-28 61 -27 61 10 0 17 -8 26 -18 20 -32 -20 -82 12 -82 52 0 47 73 35 115 -19
22 -28 25 -27 25 10 0 43 -47 65 -141 66 -46 0 -50 -6 -42 -80z"/>
<path d="M4825 6575 c-51 -24 -61 -75 -14 -75 43 0 99 58 77 79 -10 9 -38 7
-63 -4z"/>
<path d="M8798 6398 l-3 -68 -15 60 -15 60 -3 -65 c-1 -36 6 -65 15 -65 31 0
17 -65 -16 -74 -26 -7 -44 -86 -88 -392 -30 -211 -68 -447 -83 -524 -15 -77
-32 -180 -39 -230 -7 -49 -18 -112 -25 -138 -8 -33 -5 -44 11 -34 15 9 23 -2
23 -32 -1 -46 -38 -124 -41 -86 -4 45 -36 -65 -38 -128 -1 -83 11 -76 25 13
15 92 74 150 74 71 -1 -45 -5 -50 -22 -26 -16 24 -18 21 -9 -13 7 -24 -6 -168
-28 -320 -42 -288 -47 -340 -31 -324 9 10 53 282 192 1187 23 154 45 294 48
310 9 45 46 309 71 495 24 185 29 362 11 380 -7 6 -13 -19 -14 -57z"/>
<path d="M354 6311 c8 -53 4 -71 -16 -71 -22 -1 -22 -5 2 -20 45 -29 152 -24
179 9 36 43 6 109 -55 123 -30 6 -69 16 -88 21 -29 8 -32 -2 -22 -62z m115 2
c47 -34 28 -93 -28 -93 -32 0 -41 13 -41 60 0 66 14 73 69 33z"/>
<path d="M575 6290 c5 -28 -1 -63 -13 -78 -18 -21 -13 -30 23 -39 84 -23 135
-15 135 21 0 24 -6 28 -22 12 -25 -25 -98 -11 -98 19 0 11 18 15 40 9 22 -6
40 -2 40 8 0 10 -13 18 -30 18 -16 0 -30 13 -30 29 0 33 59 20 85 -18 9 -13
15 -8 15 12 0 31 -54 56 -122 57 -24 0 -30 -13 -23 -50z"/>
<path d="M760 6301 c-24 -16 -20 -29 29 -80 56 -59 32 -94 -25 -37 -19 19 -24
16 -24 -13 0 -21 6 -32 13 -25 7 7 28 4 48 -6 66 -36 93 32 37 94 -37 40 -40
49 -13 40 44 -16 47 17 3 34 -38 15 -32 15 -68 -7z"/>
<path d="M1007 6191 c-49 -77 -42 -100 18 -65 31 19 42 19 49 -1 8 -22 66 -37
66 -17 0 25 -63 152 -75 151 -8 0 -34 -31 -58 -68z"/>
<path d="M1178 6222 c19 -12 24 -38 15 -80 -9 -47 -5 -62 18 -62 16 0 29 15
29 33 0 29 7 27 46 -10 58 -54 93 -57 44 -3 -27 30 -30 46 -13 66 33 40 -11
74 -96 74 -49 -1 -62 -6 -43 -18z"/>
<path d="M1360 6188 c0 -28 5 -29 32 -6 28 23 31 17 25 -53 -5 -59 1 -80 24
-84 25 -5 29 9 23 64 -8 68 21 99 43 46 6 -16 10 -13 11 8 1 20 -20 36 -60 45
-90 17 -98 16 -98 -20z"/>
<path d="M1567 6168 c-9 -21 0 -44 23 -61 21 -14 31 -32 24 -40 -7 -7 -27 -1
-44 13 -25 20 -30 19 -30 -7 0 -37 94 -67 122 -39 12 12 4 38 -21 71 -48 61
-54 91 -11 55 26 -22 72 -14 48 8 -34 31 -100 31 -111 0z"/>
<path d="M8333 6127 c-7 -8 -13 -45 -13 -84 0 -78 -32 -66 -44 17 -8 55 -40
-87 -88 -390 -42 -267 -54 -426 -30 -391 41 61 39 -79 -5 -324 -5 -28 -16
-104 -23 -168 -7 -64 -26 -208 -41 -320 -41 -288 -39 -320 19 -331 42 -8 49
-1 60 62 18 108 15 118 -28 132 -45 14 -8 143 51 176 16 9 35 52 42 96 10 66
22 82 65 91 72 14 135 63 111 85 -11 11 -65 4 -134 -18 -78 -24 -115 -28 -115
-13 0 13 14 113 31 223 34 222 80 527 102 680 8 55 15 138 16 185 0 47 7 85
13 85 14 0 44 200 32 212 -4 5 -13 2 -21 -5z"/>
<path d="M8920 5970 c21 -25 18 -30 -18 -30 -23 0 -42 -13 -42 -29 0 -16 -13
-36 -28 -45 -49 -28 -68 -190 -43 -359 23 -153 213 -198 209 -50 0 40 -6 60
-13 43 -13 -33 -56 -80 -74 -80 -22 0 -10 57 14 66 20 7 20 14 0 36 -21 21
-25 21 -28 -3 -4 -49 -34 146 -36 234 -1 75 5 85 69 116 63 30 67 36 40 64
-16 16 -30 38 -30 48 0 11 -10 19 -22 19 -16 0 -15 -9 2 -30z"/>
<path d="M8949 5845 c-24 -17 -36 -125 -14 -125 47 1 72 38 46 68 -17 22 -18
32 -3 32 12 0 22 9 22 20 0 23 -21 25 -51 5z"/>
<path d="M31 5730 c38 -29 38 -30 1 -17 -27 10 -34 7 -24 -10 28 -44 96 -29
72 17 -12 22 -36 40 -55 40 -28 0 -27 -4 6 -30z"/>
<path d="M1016 5618 c-4 -13 -32 -23 -62 -23 -30 0 -54 -8 -54 -19 0 -10 29
-13 65 -6 36 7 76 13 90 15 18 1 19 9 2 28 -27 33 -32 33 -41 5z"/>
<path d="M3813 5569 c-9 -22 6 -30 63 -31 41 -2 56 -7 34 -11 -22 -5 -74 -24
-115 -43 -89 -41 -104 -92 -20 -70 332 87 548 -37 607 -349 22 -118 26 -125
79 -125 31 0 70 -14 88 -31 17 -18 31 -23 31 -12 0 11 -14 34 -31 52 -19 19
-27 47 -19 71 7 23 4 40 -9 40 -14 0 -17 28 -9 80 11 69 9 79 -19 68 -24 -9
-33 -1 -33 31 0 24 -9 38 -20 31 -11 -7 -20 6 -20 28 0 22 -9 45 -19 51 -11 7
-15 25 -9 40 6 15 0 34 -14 42 -15 10 -19 7 -10 -8 9 -14 1 -23 -19 -23 -23 0
-31 12 -24 37 7 28 1 36 -23 29 -18 -4 -68 15 -110 44 -43 29 -106 53 -140 54
-34 1 -71 6 -82 13 -45 26 -146 21 -157 -8z"/>
<path d="M821 5447 c11 -30 16 -66 10 -80 -5 -15 3 -27 18 -27 41 0 49 46 13
77 -28 23 -27 25 8 13 22 -7 63 -15 90 -19 28 -3 34 -2 15 3 -19 5 -35 18 -35
29 0 10 -8 15 -17 9 -9 -6 -34 2 -55 18 -56 43 -69 36 -47 -23z"/>
<path d="M1920 5433 c0 -16 -28 -34 -63 -41 -85 -17 -66 -29 28 -17 43 5 69
18 62 29 -7 11 0 28 15 38 22 14 21 17 -7 18 -19 0 -35 -12 -35 -27z"/>
<path d="M3710 5353 c-60 -17 -81 -33 -80 -63 0 -22 -13 -51 -30 -63 -16 -13
-23 -31 -14 -40 9 -9 25 -3 37 14 15 22 23 23 30 4 15 -35 47 -31 47 6 0 18
10 25 22 18 16 -10 16 -3 0 27 -29 55 -28 74 4 48 17 -15 34 -15 55 -1 24 17
23 19 -6 10 -19 -7 -35 -3 -35 8 0 10 14 19 30 19 17 0 30 9 30 20 0 11 -2 19
-5 18 -3 -1 -41 -12 -85 -25z"/>
<path d="M2065 5177 c-355 -173 -484 -614 -341 -1177 207 -822 213 -893 77
-986 -157 -108 -451 86 -412 271 32 148 36 435 7 481 -16 24 -40 84 -54 133
-64 219 -185 328 -427 382 -63 14 -115 31 -115 38 0 7 -37 9 -83 4 -57 -5 -78
-1 -68 15 8 13 0 22 -19 22 -20 0 -27 9 -18 23 10 16 4 20 -19 11 -19 -8 -33
-3 -33 12 -1 17 -5 18 -15 2 -22 -33 -112 4 -98 40 6 16 -1 33 -15 39 -18 6
-23 -5 -17 -39 8 -42 2 -48 -48 -48 -31 0 -82 -13 -113 -30 -31 -16 -99 -33
-150 -37 -78 -7 -95 -15 -101 -52 -5 -39 1 -42 60 -32 575 102 1098 7 1113
-201 7 -98 -31 -143 -93 -109 -49 26 -63 26 -63 4 0 -10 25 -23 55 -29 71 -15
117 -83 80 -122 -21 -23 -38 -18 -105 29 -88 61 -184 98 -161 61 7 -12 25 -22
39 -22 35 0 212 -119 212 -143 0 -11 -9 -14 -19 -7 -11 6 -39 -8 -62 -31 -42
-42 -43 -42 -86 -3 -177 161 -500 181 -692 43 -96 -70 -110 -123 -16 -60 228
152 493 140 735 -34 60 -43 160 -163 160 -191 0 -4 -52 18 -115 48 -163 78
-214 91 -199 50 10 -26 4 -30 -35 -20 -27 6 -69 4 -95 -4 -39 -14 -33 -18 44
-29 50 -7 108 -20 130 -30 37 -15 38 -14 10 21 -28 35 -26 36 40 23 152 -29
246 -97 271 -194 58 -229 278 -418 487 -419 275 -1 376 232 243 564 -32 81
-68 187 -80 237 -11 49 -44 184 -73 299 -146 588 -33 1002 318 1161 225 102
554 -9 665 -223 l30 -58 -69 0 c-52 0 -72 10 -82 41 -21 66 -118 46 -126 -26
-4 -32 3 -55 17 -55 13 0 18 13 12 29 -18 46 37 78 69 39 22 -27 22 -36 -4
-55 -17 -13 -43 -79 -57 -148 l-26 -125 -80 45 c-44 25 -108 78 -143 118 l-63
73 -79 -54 c-201 -136 -193 -345 38 -1115 142 -470 102 -783 -121 -950 -326
-243 -586 -220 -1237 111 -451 229 -522 244 -709 151 l-139 -69 -1 -713 -1
-714 148 -6 c164 -8 186 11 37 32 -160 23 -165 26 -165 112 0 118 89 114 190
-9 83 -102 130 -127 154 -84 19 34 264 24 311 -13 40 -31 29 -59 -14 -36 -63
34 -225 25 -288 -17 -33 -22 -47 -41 -32 -46 18 -6 14 -68 -18 -267 -48 -296
-58 -384 -73 -649 -6 -104 -24 -239 -40 -300 -34 -129 -37 -160 -12 -160 32 0
102 348 103 512 1 87 10 208 19 268 10 61 34 230 53 377 l36 267 120 -9 c67
-5 135 -15 152 -23 22 -9 31 -1 34 31 6 89 -25 111 -178 122 -84 6 -149 20
-153 33 -4 13 -36 79 -71 148 l-63 124 -115 -6 -115 -6 0 88 c0 223 275 712
418 744 35 7 88 35 120 61 l56 48 184 -90 c768 -376 1249 -337 1473 121 90
184 73 651 -31 880 -55 122 -180 639 -180 746 1 118 18 156 105 226 l81 65 45
-53 c50 -57 181 -134 230 -134 63 0 124 -176 150 -433 41 -406 83 -398 139 25
35 265 25 307 -101 446 -93 103 -116 92 -31 -15 110 -139 120 -185 98 -443
-17 -200 -53 -345 -57 -229 -10 291 -35 468 -83 569 -61 130 -58 294 6 352 92
83 258 -48 258 -204 0 -15 10 -28 23 -28 28 0 11 118 -27 188 -141 265 -258
394 -390 431 -128 35 -345 25 -441 -22z m-1779 -2501 l56 -20 -69 -63 c-46
-42 -94 -123 -143 -243 -95 -229 -106 -240 -100 -96 3 78 22 151 56 218 28 55
57 134 65 175 11 59 21 73 46 62 18 -7 58 -22 89 -33z m-146 7 c0 -36 -86
-223 -103 -223 -41 0 -18 175 28 207 52 35 75 41 75 16z"/>
<path d="M8099 5125 c-1 -41 -6 -113 -11 -160 -6 -52 -2 -85 11 -85 12 0 22
25 24 55 7 119 12 157 26 210 12 43 9 55 -17 55 -23 0 -32 -20 -33 -75z"/>
<path d="M7724 5010 c-14 -99 -31 -200 -37 -225 -6 -25 -3 -45 8 -45 23 0 72
307 62 390 -4 37 -17 -9 -33 -120z"/>
<path d="M448 5117 c-8 -14 -5 -18 7 -10 12 7 25 5 28 -6 4 -10 45 -27 92 -38
48 -10 80 -11 74 -1 -6 10 -31 18 -55 18 -36 1 -39 4 -14 21 22 15 14 17 -30
8 -46 -9 -53 -7 -30 9 25 18 23 21 -14 22 -24 0 -50 -10 -58 -23z"/>
<path d="M780 5065 c0 -55 9 -78 29 -78 20 0 27 20 24 70 -7 100 -53 108 -53
8z"/>
<path d="M8974 5000 c-37 -292 -138 -911 -151 -923 -7 -8 -35 -18 -63 -23 -37
-6 -31 -9 23 -11 71 -3 74 0 87 77 7 44 21 84 30 90 10 6 28 80 42 164 18 109
29 142 40 115 10 -25 15 -28 15 -9 0 17 -7 48 -16 70 -9 22 -8 50 2 63 10 12
16 134 13 270 -6 234 -7 240 -22 117z"/>
<path d="M3740 5081 c-102 -20 -195 -75 -210 -122 -18 -54 -3 -67 45 -42 92
49 327 82 428 60 55 -11 105 -16 112 -9 6 7 -8 12 -31 12 -30 0 -39 9 -31 30
9 23 -5 30 -60 30 -86 0 -115 34 -38 46 30 4 10 8 -45 9 -55 0 -131 -6 -170
-14z"/>
<path d="M45 4985 c-14 -4 -25 -22 -25 -39 0 -17 12 -26 28 -20 15 6 39 0 54
-13 21 -18 22 -17 5 7 -12 17 -25 40 -29 52 -5 12 -19 18 -33 13z"/>
<path d="M281 4955 c-16 -25 -28 -52 -25 -60 2 -8 -5 -15 -16 -15 -11 0 -20
-10 -20 -21 0 -12 20 -8 44 10 50 34 146 43 126 11 -7 -11 -3 -20 9 -20 11 0
21 15 21 33 0 26 -15 30 -80 22 -45 -7 -75 -3 -69 7 6 10 23 18 37 18 14 0 25
14 25 30 0 43 -19 37 -52 -15z"/>
<path d="M3750 4901 c-44 -8 -149 -41 -233 -72 -140 -52 -159 -55 -231 -31
-101 33 -164 23 -201 -33 l-30 -45 81 29 c44 15 85 23 91 18 5 -6 51 -10 101
-10 51 0 92 -8 92 -17 0 -10 29 -20 65 -24 50 -5 66 -17 71 -51 5 -35 20 -45
65 -45 69 0 76 24 17 63 -40 27 -39 29 40 73 153 87 502 94 502 11 0 -16 7
-25 15 -20 25 15 38 -262 17 -357 -5 -22 -10 -52 -10 -67 -2 -20 -9 -22 -28
-7 -43 37 -82 -3 -54 -55 27 -51 19 -67 -25 -50 -16 6 -44 47 -61 90 -30 77
-81 105 -100 54 -7 -19 -18 -20 -49 -1 -28 16 -46 17 -61 2 -38 -38 -123 -2
-113 49 27 133 26 215 -2 215 -16 0 -29 -9 -29 -20 0 -11 9 -20 20 -20 11 0
20 -16 20 -34 0 -29 -6 -27 -31 10 -34 48 -78 55 -158 24 l-52 -19 40 -79 c30
-59 54 -81 95 -86 46 -5 58 -18 67 -76 14 -82 102 -261 147 -298 28 -23 26
-30 -13 -64 l-45 -38 55 8 c30 5 63 15 74 22 11 6 40 -6 65 -29 53 -49 180
-55 279 -12 l67 29 -80 2 c-162 4 -233 15 -255 37 -17 17 -7 23 40 23 65 0
165 36 165 59 0 8 19 34 42 58 23 25 44 56 47 69 3 13 12 42 22 63 21 49 21
121 0 317 -15 140 -13 158 21 184 37 28 107 43 82 17 -7 -7 -4 -28 6 -47 15
-29 11 -33 -31 -25 -46 9 -49 4 -49 -73 0 -45 9 -82 20 -82 11 0 20 13 20 29
0 16 8 34 18 40 10 6 13 -9 7 -34 -11 -41 -9 -43 24 -16 37 31 35 225 -3 263
-60 60 -492 112 -656 79z m252 -696 c21 -56 -1 -84 -68 -85 -26 0 -35 13 -30
45 5 39 -2 45 -59 42 -74 -3 -88 27 -20 42 144 31 149 29 177 -44z"/>
<path d="M268 4772 c-16 -17 -8 -33 29 -61 27 -21 43 -27 35 -14 -11 17 -1 22
31 17 26 -5 36 -4 22 0 -14 5 -20 17 -14 28 6 10 -6 18 -28 18 -22 0 -43 8
-46 18 -4 10 -17 7 -29 -6z"/>
<path d="M3223 4710 c12 -29 59 -133 83 -185 31 -66 54 -14 27 58 -13 32 -44
79 -70 103 -27 24 -45 35 -40 24z"/>
<path d="M3835 4706 c-60 -9 -76 -46 -20 -47 33 0 33 -1 0 -21 -97 -56 36
-233 141 -187 57 24 65 35 51 74 -8 25 -15 64 -16 88 -1 24 -7 39 -15 35 -7
-5 -19 0 -26 12 -7 11 8 20 34 20 37 1 40 4 16 20 -30 20 -65 21 -165 6z"/>
<path d="M2863 4575 c108 -271 96 -354 -113 -825 -139 -312 -172 -768 -64
-862 105 -90 221 -66 459 96 64 43 124 73 134 67 10 -7 43 10 73 36 52 45 60
46 166 22 302 -67 377 -74 872 -79 358 -4 461 -1 330 10 -104 9 -311 17 -460
18 -243 3 -618 49 -785 96 -67 20 -63 56 5 51 42 -3 41 -1 -11 15 -54 17 -62
28 -66 105 -5 90 -97 213 -140 187 -66 -41 -86 -140 -35 -177 162 -118 158
-137 -43 -253 -103 -60 -104 -60 -107 -16 -20 433 -17 620 13 803 32 188 65
313 68 256 0 -14 15 -25 31 -25 17 0 30 11 30 25 1 17 7 15 22 -5 18 -26 20
-26 13 -1 -4 17 -30 36 -56 43 -45 13 -46 17 -4 26 60 14 105 38 105 55 0 12
14 16 30 10 17 -7 30 -3 30 8 0 27 -67 24 -96 -5 -38 -38 -46 -8 -11 42 25 36
36 40 49 19 22 -34 21 0 -2 53 -9 22 -18 29 -19 16 0 -14 -27 -54 -58 -90
-101 -117 -156 -269 -182 -496 -13 -115 -32 -213 -43 -217 -10 -3 -12 -16 -5
-28 25 -40 7 -476 -22 -545 -47 -112 -162 -140 -179 -43 -17 99 -10 222 13
238 16 11 8 13 -20 5 -48 -14 -68 53 -24 81 12 7 19 41 17 76 -3 35 4 81 16
103 11 22 17 50 13 62 -5 12 6 48 22 80 17 32 31 45 31 29 0 -21 6 -23 22 -7
12 12 22 82 22 154 -1 73 7 132 16 132 26 0 48 81 42 155 -5 66 56 122 73 69
10 -28 65 -33 65 -6 0 10 -12 22 -27 28 -16 6 -33 36 -39 67 -26 132 -76 278
-101 297 -15 11 -42 49 -60 85 -52 99 -57 77 -10 -40z"/>
<path d="M3175 4636 c25 -27 45 -70 45 -96 l0 -47 -46 44 c-87 81 -136 11 -70
-99 41 -68 42 -68 59 -21 13 37 29 45 67 38 75 -14 9 196 -70 221 -19 6 -13
-9 15 -40z"/>
<path d="M7850 4619 c-88 -32 -162 -58 -165 -58 -3 -1 -5 23 -5 52 0 99 -17
38 -27 -98 -8 -107 -4 -138 20 -152 26 -14 27 -21 3 -45 -83 -83 -63 -106 114
-129 55 -7 115 -16 133 -21 33 -9 39 5 66 148 8 40 2 46 -45 40 -43 -5 -53
-15 -48 -51 4 -25 -3 -45 -15 -45 -11 0 -21 9 -21 20 0 11 -11 18 -25 15 -14
-3 -25 9 -26 25 0 17 -5 39 -11 50 -32 56 -39 101 -10 63 23 -29 37 -32 69
-15 22 12 63 22 90 22 54 0 61 15 83 155 16 100 24 99 -180 24z"/>
<path d="M4020 4589 c0 -46 3 -49 30 -22 17 17 30 40 30 52 0 11 -13 21 -30
21 -19 0 -30 -19 -30 -51z"/>
<path d="M720 4500 c-21 -14 2 -19 80 -18 80 1 99 6 70 18 -54 23 -114 23
-150 0z"/>
<path d="M1304 4486 c-20 -7 -20 -16 -2 -38 18 -23 14 -28 -22 -28 -38 0 -41
-5 -20 -30 14 -16 38 -30 54 -30 15 0 23 -8 17 -18 -6 -10 3 -23 20 -30 17 -6
26 -3 20 7 -6 10 3 32 20 49 18 18 23 32 12 32 -12 0 -26 -9 -33 -20 -23 -37
-45 -2 -38 60 4 33 5 59 3 58 -3 0 -17 -6 -31 -12z"/>
<path d="M4445 4295 c16 -48 113 -89 134 -56 10 16 14 36 9 45 -6 9 15 15 46
15 53 -1 54 -2 11 -20 -55 -22 -59 -59 -7 -59 20 0 48 -13 62 -30 14 -16 66
-43 117 -58 190 -58 312 -127 389 -220 86 -105 147 -146 147 -101 0 16 -7 29
-16 29 -9 0 -17 23 -17 51 0 29 -9 46 -20 39 -28 -18 -25 17 5 49 15 16 16 22
2 14 -19 -11 -47 23 -56 67 -8 43 -37 58 -72 39 -31 -16 -39 -14 -39 10 0 18
18 31 43 31 94 0 8 30 -98 34 -77 3 -118 14 -130 35 -10 19 -45 31 -86 31 -38
0 -69 10 -69 21 0 12 -8 16 -18 10 -10 -6 -22 0 -27 13 -5 16 -64 27 -163 31
-119 5 -154 0 -147 -20z"/>
<path d="M530 4152 c-126 -40 -199 -84 -267 -162 -96 -109 -75 -125 28 -22
155 155 393 207 609 133 108 -37 109 -37 63 0 -94 77 -281 99 -433 51z"/>
<path d="M4519 4105 c-38 -41 -96 -94 -129 -117 l-60 -43 109 8 c147 11 292
103 211 134 -17 7 -38 30 -46 53 -14 38 -20 35 -85 -35z"/>
<path d="M3460 4088 c0 -15 -14 -28 -31 -28 -17 0 -26 -9 -19 -20 7 -11 -7
-20 -30 -20 -23 0 -37 -9 -30 -20 7 -11 -1 -20 -18 -20 -19 0 -26 11 -19 30 6
17 22 30 34 30 28 1 -29 39 -58 40 -11 0 -19 -31 -18 -70 2 -51 -6 -70 -29
-70 -28 -1 -28 -3 -2 -20 27 -18 14 -29 -26 -22 -21 4 -76 -51 -71 -72 2 -9
-12 -49 -30 -90 -62 -139 -30 -185 50 -71 25 36 57 72 71 81 14 9 26 25 26 36
0 54 299 258 378 258 55 0 -5 37 -93 57 -68 15 -85 13 -85 -9z"/>
<path d="M595 4069 c-69 -38 -71 -54 -4 -29 87 34 173 22 252 -32 41 -29 86
-48 100 -44 36 12 -189 136 -245 135 -27 0 -73 -14 -103 -30z"/>
<path d="M8928 4071 c-15 -37 6 -71 43 -71 18 0 29 20 29 50 0 55 -53 70 -72
21z"/>
<path d="M52 3958 c-29 -33 -52 -76 -52 -94 0 -35 6 -30 87 81 66 90 38 101
-35 13z"/>
<path d="M480 3981 c-93 -28 -174 -79 -207 -130 -41 -62 -14 -68 39 -8 83 94
279 145 369 96 23 -12 39 -13 39 -2 0 45 -148 72 -240 44z"/>
<path d="M4820 3964 c-109 -8 -161 -45 -59 -42 38 1 114 8 169 16 122 17 40
36 -110 26z"/>
<path d="M3711 3882 c-6 -10 -30 -13 -52 -7 -64 16 -213 -76 -188 -116 49 -79
929 -144 929 -68 0 14 32 53 71 87 39 34 63 63 55 65 -9 2 -142 5 -296 6 -444
5 -514 9 -500 31 7 11 8 20 2 20 -5 0 -15 -8 -21 -18z m689 -120 c0 -21 -90
-82 -121 -82 -37 0 -9 48 43 75 57 29 78 31 78 7z"/>
<path d="M4918 3818 c-32 -34 -58 -80 -58 -101 0 -22 -9 -34 -20 -27 -11 7
-20 -2 -20 -19 0 -17 14 -31 30 -31 17 0 30 -8 30 -17 0 -10 54 10 120 45 77
40 120 75 120 97 0 48 -27 44 -131 -17 -49 -28 -89 -44 -89 -35 0 10 41 42 90
72 101 61 115 95 38 95 -32 0 -74 -23 -110 -62z"/>
<path d="M3360 3835 c0 -7 9 -35 20 -64 12 -33 12 -51 0 -51 -11 0 -20 8 -20
18 0 10 -14 23 -30 29 -26 10 -26 6 1 -36 62 -95 304 -155 724 -181 175 -11
198 -5 180 44 -6 16 -20 18 -275 33 -105 7 -261 30 -348 53 -107 27 -166 33
-182 20 -18 -15 -24 -3 -26 43 -1 50 -44 139 -44 92z"/>
<path d="M72 3719 c-20 -34 -32 -66 -26 -72 10 -9 94 99 94 121 0 31 -35 6
-68 -49z"/>
<path d="M5021 3637 c-92 -51 -152 -74 -157 -60 -4 13 -24 23 -45 23 -28 0
-34 -9 -25 -35 12 -30 9 -31 -18 -9 -18 14 -37 18 -44 8 -16 -27 8 -44 60 -44
25 0 51 -8 57 -18 5 -9 -38 -16 -98 -15 -171 5 -181 -29 -20 -70 132 -33 167
-67 49 -47 -213 35 -322 31 -300 -9 20 -39 35 -43 258 -82 135 -23 155 -16
165 57 8 50 332 204 430 204 48 0 65 46 27 70 -12 7 -16 20 -11 28 5 9 -3 33
-19 54 -26 35 -29 35 -29 3 -1 -19 8 -35 19 -35 11 0 4 -16 -15 -36 -19 -20
-40 -30 -45 -21 -16 22 -377 -148 -388 -183 -5 -16 -8 -12 -6 10 3 29 54 64
188 130 180 88 217 124 154 148 -17 7 -33 12 -35 12 -1 0 -70 -38 -152 -83z"/>
<path d="M3413 3626 c-7 -7 -13 -30 -13 -52 0 -34 -5 -35 -35 -12 -30 22 -31
22 -10 -2 13 -15 40 -29 60 -31 19 -2 130 -22 246 -45 175 -35 416 -56 534
-46 20 2 38 59 20 63 -3 1 -90 6 -195 12 -200 11 -528 72 -569 106 -14 12 -31
15 -38 7z"/>
<path d="M4324 3603 c-21 -13 -20 -21 4 -41 35 -29 118 -10 107 25 -10 29 -76
39 -111 16z"/>
<path d="M249 3539 c-45 -20 -115 -40 -157 -42 -111 -8 -110 -37 2 -37 100 1
266 62 266 99 0 27 -14 25 -111 -20z"/>
<path d="M569 3549 c-38 -31 -37 -32 11 -21 28 6 73 12 100 12 40 0 44 5 20
20 -44 28 -87 24 -131 -11z"/>
<path d="M3300 3551 c0 -15 140 -151 155 -151 4 0 72 -13 151 -30 394 -80 814
-75 814 10 0 30 -79 35 -131 8 -63 -33 -109 -36 -109 -8 0 11 -47 20 -105 20
-142 0 -530 58 -610 91 -45 19 -65 20 -65 4 0 -12 -22 -1 -50 25 -27 26 -50
40 -50 31z"/>
<path d="M4313 3507 c-33 -34 -9 -67 47 -67 38 0 60 10 60 28 0 16 11 33 25
39 14 5 -7 11 -47 11 -39 1 -77 -4 -85 -11z"/>
<path d="M5420 3505 c0 -38 72 -184 89 -179 35 12 20 133 -20 164 -43 32 -69
38 -69 15z"/>
<path d="M4480 3482 c0 -25 54 -43 90 -29 16 6 25 19 19 29 -15 23 -109 23
-109 0z"/>
<path d="M242 3388 c48 -52 114 -92 208 -128 89 -34 53 9 -49 58 -54 25 -114
63 -133 84 -19 21 -43 38 -55 38 -11 0 2 -23 29 -52z"/>
<path d="M5290 3397 c-43 -10 -88 -28 -100 -40 -14 -15 -5 -18 30 -8 l50 13
-50 -32 -50 -33 50 13 c28 7 91 23 140 35 58 14 76 25 52 31 -30 6 -32 12 -10
26 37 23 -1 21 -112 -5z"/>
<path d="M0 3322 c0 -20 165 -94 250 -111 33 -7 -6 20 -88 59 -163 78 -162 77
-162 52z"/>
<path d="M5060 3310 c-32 -18 -39 -29 -20 -31 20 -1 17 -7 -10 -19 -26 -11
-29 -17 -10 -18 17 0 57 13 90 28 l60 28 -60 -10 -60 -10 60 30 c33 16 47 29
30 30 -16 0 -52 -12 -80 -28z"/>
<path d="M1040 3304 c0 -11 16 -24 35 -29 19 -6 53 -17 75 -26 36 -13 37 -11
10 16 -37 38 -120 65 -120 39z"/>
<path d="M560 3266 c0 -22 95 -46 141 -36 91 20 70 40 -41 40 -55 0 -100 -2
-100 -4z"/>
<path d="M3124 3231 c-27 -60 5 -90 35 -33 12 22 21 49 21 61 0 38 -33 22 -56
-28z"/>
<path d="M5133 3228 c-130 -45 -188 -48 -162 -7 6 11 2 19 -10 19 -28 0 -27
-46 2 -75 44 -44 -31 -48 -556 -28 l-517 20 457 -8 c596 -9 570 7 -49 31 -269
11 -519 24 -558 30 -53 8 -60 6 -30 -8 27 -13 5 -15 -70 -8 -178 19 -104 -11
122 -48 114 -19 316 -35 448 -35 741 -2 857 -12 745 -67 l-45 -21 46 -2 c26 0
41 -10 34 -21 -25 -40 -908 -23 -1189 23 -138 23 -281 46 -318 52 l-67 10 14
-108 c18 -133 -10 -114 244 -158 273 -48 366 -50 366 -8 0 24 11 22 57 -12 53
-39 81 -41 501 -42 502 0 463 -8 467 96 l3 79 207 56 207 57 -6 92 -6 93 -80
-5 c-44 -3 -114 -18 -155 -35 -105 -41 -235 -69 -235 -50 0 9 63 36 140 60 77
24 145 51 151 62 16 25 0 21 -158 -34z"/>
<path d="M870 3240 c7 -11 38 -20 70 -20 32 0 63 9 70 20 7 12 -20 20 -70 20
-50 0 -77 -8 -70 -20z"/>
<path d="M790 3169 c-66 -53 -60 -62 19 -26 28 13 51 35 51 50 0 34 1 35 -70
-24z"/>
<path d="M391 3178 c14 -22 183 -24 196 -2 6 9 -39 17 -99 18 -62 2 -104 -5
-97 -16z"/>
<path d="M189 3152 c42 -35 98 -39 161 -12 31 13 22 17 -43 19 -46 0 -100 6
-120 13 -34 10 -34 9 2 -20z"/>
<path d="M600 3150 c-14 -16 -46 -30 -71 -30 -26 0 -53 -10 -60 -22 -8 -12
-48 -18 -90 -15 -41 4 -71 1 -66 -8 15 -23 129 -17 213 12 79 28 129 65 111
83 -6 6 -23 -3 -37 -20z"/>
<path d="M140 3097 c-27 -11 -70 -16 -95 -11 -25 5 -45 2 -45 -7 0 -45 142
-35 182 13 26 32 25 32 -42 5z"/>
<path d="M630 3068 c-44 -26 -68 -47 -54 -48 39 0 144 58 144 81 0 23 7 26
-90 -33z"/>
<path d="M915 3106 c-30 -5 -55 -17 -55 -27 0 -29 68 -22 111 10 22 17 30 29
19 27 -11 -1 -45 -6 -75 -10z"/>
<path d="M5481 2938 c0 -18 12 -108 28 -201 16 -93 27 -209 23 -258 -4 -57 3
-99 21 -115 39 -36 37 171 -4 368 -34 163 -66 260 -68 206z"/>
<path d="M5080 2850 c0 -7 32 -85 70 -173 73 -166 84 -240 50 -357 -11 -39
-38 -205 -60 -370 -42 -319 -104 -591 -151 -664 -16 -25 -29 -60 -29 -79 0
-49 -32 -10 -48 58 -12 54 16 80 33 30 5 -16 17 -9 31 17 31 59 -201 102 -386
72 l-120 -19 138 -3 c76 -1 133 -7 126 -14 -6 -7 -80 -11 -164 -10 -107 1
-148 -4 -139 -20 10 -16 0 -17 -33 -6 -27 8 -187 14 -358 12 -170 -3 -337 4
-370 14 -40 12 24 15 190 8 180 -7 242 -3 220 12 -17 12 -125 22 -242 22 -229
0 -353 30 -432 104 -44 41 -79 21 -63 -36 3 -10 -11 -62 -32 -115 -32 -82 -35
-111 -16 -180 15 -57 16 -111 2 -173 -11 -49 -26 -291 -33 -536 l-14 -446 70
6 c52 4 69 15 65 39 -3 18 9 38 26 45 17 6 26 21 19 32 -7 11 -21 16 -31 9
-10 -6 -13 3 -7 20 7 17 19 31 28 31 8 0 19 27 24 61 8 49 3 59 -22 50 -29
-10 -29 -9 0 14 36 28 34 93 -4 116 -19 12 -20 47 -5 147 10 73 12 132 3 132
-8 0 -2 34 14 75 37 94 49 224 25 272 -13 26 -12 34 3 24 14 -9 22 8 22 48 0
33 -9 61 -20 61 -11 0 -20 8 -20 18 0 32 77 38 131 10 29 -15 77 -23 106 -18
41 8 44 7 14 -6 -51 -23 -6 -52 52 -33 28 9 38 6 28 -9 -8 -13 3 -22 28 -22
22 0 41 -10 41 -22 0 -12 13 -17 28 -12 15 6 34 6 41 -1 7 -7 37 -14 67 -14
42 -1 55 -11 56 -45 1 -25 -4 -41 -13 -36 -8 6 -20 -4 -26 -20 -7 -17 -1 -30
12 -30 17 0 17 -6 0 -23 -27 -27 30 -64 134 -87 33 -7 61 -24 61 -37 1 -15 7
-14 18 4 46 73 326 57 312 -17 -4 -22 1 -40 11 -40 11 0 19 -13 19 -30 0 -16
14 -30 30 -30 17 0 30 -18 30 -39 0 -27 10 -36 30 -28 17 6 30 36 30 70 0 33
10 78 22 100 20 38 33 150 36 322 1 50 11 75 29 75 22 0 26 -38 20 -188 -5
-141 0 -196 20 -216 39 -39 18 -158 -34 -201 -24 -19 -32 -34 -18 -35 36 0 31
-54 -7 -68 -27 -10 -28 -18 -7 -43 21 -26 21 -30 0 -25 -40 9 -45 -31 -10 -75
18 -21 26 -28 19 -14 -7 14 -3 25 9 25 11 0 21 -18 21 -40 0 -26 -13 -40 -38
-40 -38 0 -61 -50 -62 -134 0 -24 -14 -57 -30 -73 -27 -27 -21 -32 57 -44 173
-25 170 -30 201 367 13 172 64 264 146 264 57 0 52 -13 -70 -180 -38 -52 -41
-61 -11 -35 22 19 46 29 54 22 7 -8 13 2 13 21 0 21 9 29 23 20 14 -9 18 -5 9
8 -7 13 0 50 18 83 25 49 26 68 6 100 -20 32 -20 54 -1 104 13 34 19 71 13 80
-14 24 -67 21 -70 -3 -4 -26 -8 -38 -37 -115 -31 -80 -71 -87 -53 -10 7 30 18
89 25 130 7 41 20 69 29 64 10 -6 12 29 5 77 -7 56 -4 94 11 103 12 7 22 35
22 62 0 27 16 65 35 84 19 19 36 62 38 95 6 101 48 299 68 319 10 10 19 40 19
65 0 25 10 46 22 46 12 0 17 11 12 25 -5 14 4 56 19 94 21 52 22 72 4 83 -17
11 -15 32 10 85 23 49 35 132 38 276 2 114 13 214 24 222 14 9 12 14 -4 15
-14 0 -25 23 -25 50 0 28 -9 50 -19 50 -11 0 -60 42 -110 92 -50 51 -91 86
-91 78z m-470 -1684 c36 -11 36 -13 -10 -31 l-50 -20 57 -24 c83 -36 30 -54
-207 -74 -104 -8 -219 -21 -255 -28 -98 -20 -81 25 20 54 47 14 125 55 175 92
91 69 128 73 270 31z m308 -13 c17 -21 16 -33 -5 -50 -21 -18 -32 -12 -49 27
-26 57 12 73 54 23z m-344 -201 c16 -13 -24 -92 -45 -92 -40 0 -129 44 -129
64 0 39 134 60 174 28z"/>
<path d="M3451 2801 c36 -36 623 -120 602 -86 -7 11 -64 25 -128 31 -63 6
-187 25 -275 42 -190 37 -225 39 -199 13z"/>
<path d="M5300 2781 c0 -21 9 -44 19 -50 11 -7 15 -25 9 -40 -11 -28 26 -63
47 -43 16 16 -37 172 -58 172 -9 0 -17 -17 -17 -39z"/>
<path d="M4210 2700 c58 -25 295 -25 280 0 -7 11 -82 19 -166 19 -105 -1 -141
-7 -114 -19z"/>
<path d="M4580 2700 c-20 -14 49 -18 215 -15 135 3 245 12 245 20 0 22 -425
18 -460 -5z"/>
<path d="M3460 2575 l0 -111 175 -31 c384 -68 389 -68 333 17 -31 47 -25 90
13 90 10 0 36 -35 58 -79 54 -105 141 -135 141 -49 0 15 9 28 20 28 22 0 -16
80 -50 105 -13 9 -12 14 3 15 12 0 56 -37 97 -82 147 -163 497 -177 373 -16
-20 27 -41 62 -48 80 -9 26 -63 34 -318 44 -269 11 -390 26 -722 86 l-75 13 0
-110z"/>
<path d="M4767 2585 l-144 -7 29 -54 c15 -30 28 -79 28 -109 l0 -55 168 3 168
3 13 99 c7 55 10 102 7 105 -16 15 -141 22 -269 15z"/>
<path d="M643 2502 c-37 -23 7 -38 73 -26 35 7 41 14 21 26 -34 22 -60 22 -94
0z"/>
<path d="M3464 2394 c8 -57 555 -176 689 -151 79 16 -98 92 -246 106 -78 7
-212 29 -296 50 l-153 36 6 -41z"/>
<path d="M575 2347 c14 -6 20 -19 14 -29 -6 -10 14 -18 46 -18 31 0 68 -11 81
-24 19 -19 24 -17 24 6 0 50 -44 78 -119 76 -39 0 -60 -6 -46 -11z"/>
<path d="M4740 2316 c-267 -20 -284 -24 -212 -54 98 -40 512 -25 512 19 0 47
-51 52 -300 35z"/>
<path d="M3473 2246 c-22 -134 25 -159 437 -226 429 -71 1130 -43 1130 45 0
36 -9 39 -95 28 -418 -55 -1034 -19 -1367 79 -124 37 -115 62 10 31 254 -64
812 -124 812 -87 0 9 29 14 65 10 62 -5 338 -5 500 1 64 3 75 10 75 48 0 44
-256 51 -304 7 -44 -38 -963 46 -1169 108 l-83 25 -11 -69z"/>
<path d="M476 2241 c30 -29 63 -48 73 -43 10 5 8 13 -5 17 -13 5 -24 20 -24
34 0 15 -22 31 -49 36 l-50 9 55 -53z"/>
<path d="M283 2233 c-44 -25 -43 -26 37 -30 73 -2 79 1 53 27 -36 35 -31 35
-90 3z"/>
<path d="M3344 2050 c-39 -39 -41 -47 -13 -57 17 -7 27 -21 20 -31 -6 -9 9
-23 34 -29 24 -6 48 -4 54 6 6 10 59 9 121 -3 126 -22 171 -48 50 -28 -54 9
-70 7 -49 -6 54 -34 369 -70 410 -47 28 16 14 19 -62 14 -82 -6 -87 -4 -29 8
68 14 66 15 -46 29 -63 8 -153 23 -200 34 -46 11 -109 24 -139 30 -45 9 -55
21 -55 70 0 71 -31 74 -96 10z"/>
<path d="M3430 1852 c-153 -232 74 -338 780 -364 357 -13 396 2 184 71 -41 13
-100 45 -130 69 -54 45 -111 58 -503 114 -93 13 -199 42 -235 63 -75 44 -85
65 -25 49 34 -9 37 -6 18 18 -33 40 -53 35 -89 -20z"/>
<path d="M4004 1843 c-14 -9 26 -14 90 -11 107 4 109 4 26 -9 l-90 -14 128
-14 c70 -8 219 -13 330 -11 l202 4 -240 12 -240 12 198 4 c109 2 195 7 190 11
-18 16 -570 31 -594 16z"/>
<path d="M4707 1829 c-17 -43 -17 -43 173 -15 l170 24 -170 -7 c-112 -5 -146
-2 -100 8 l70 16 -66 2 c-42 2 -69 -8 -77 -28z"/>
<path d="M3582 1822 c29 -19 534 -105 586 -100 44 4 -123 41 -308 69 -104 15
-217 33 -250 40 -45 9 -52 6 -28 -9z"/>
<path d="M4920 1760 c-65 -14 -63 -15 35 -17 58 -2 105 6 105 17 0 22 -35 22
-140 0z"/>
<path d="M4270 1720 c7 -11 99 -19 216 -18 137 2 184 8 144 18 -92 24 -375 24
-360 0z"/>
<path d="M4850 1697 c-88 -9 -241 -22 -340 -29 -223 -16 -178 -44 80 -49 138
-3 163 -7 105 -18 -97 -19 -111 -35 -64 -70 39 -28 361 -23 392 7 29 28 41
182 14 179 -15 -2 -99 -11 -187 -20z"/>
<path d="M3429 1571 c62 -50 246 -111 327 -109 65 2 61 5 -34 21 -59 9 -149
37 -200 61 -126 60 -138 64 -93 27z"/>
<path d="M740 1396 c0 -9 43 -17 95 -18 52 -2 79 -7 60 -12 -19 -5 -35 -17
-35 -27 0 -27 75 -23 84 3 5 16 41 18 114 8 73 -10 98 -20 80 -32 -24 -15 -24
-17 -1 -18 19 0 24 -17 17 -55 -42 -214 137 -425 362 -425 43 0 47 -7 37 -55
-63 -286 -91 -765 -46 -765 21 0 30 62 39 265 7 159 32 367 63 520 105 523 78
555 -514 600 -195 14 -355 19 -355 11z m704 -86 c125 -20 183 -110 167 -259
-17 -147 -9 -139 -123 -122 -164 25 -253 163 -219 341 11 59 20 69 57 61 24
-5 77 -14 118 -21z"/>
<path d="M1400 1222 c0 -12 13 -22 29 -22 15 0 56 -34 90 -75 54 -66 61 -69
61 -30 0 45 -63 125 -98 125 -10 0 -33 5 -50 12 -18 7 -32 2 -32 -10z"/>
<path d="M435 1160 c-8 -115 -29 -291 -45 -390 -38 -231 -37 -347 2 -190 45
185 70 421 64 610 l-6 180 -15 -210z"/>
<path d="M673 1340 c-14 -38 -66 -462 -94 -761 -11 -127 -37 -310 -57 -405
-30 -142 -31 -174 -9 -174 15 0 27 7 27 15 0 8 14 78 30 155 17 77 44 298 60
490 17 193 40 419 52 504 21 148 17 244 -9 176z"/>
<path d="M2061 1321 c-31 -57 -28 -91 6 -64 15 13 33 17 40 9 7 -7 13 -2 13
11 0 13 -9 23 -19 23 -11 0 -15 14 -8 30 16 43 -8 37 -32 -9z"/>
<path d="M1814 1300 c-8 -33 0 -40 43 -40 38 1 45 6 25 18 -15 10 -21 28 -13
40 7 12 1 22 -15 22 -16 0 -34 -18 -40 -40z"/>
<path d="M5497 1247 c-19 -5 -39 -23 -45 -39 -7 -17 -3 -25 8 -18 11 7 20 -1
20 -17 0 -16 -11 -34 -25 -40 -15 -6 -10 -11 11 -11 22 -1 31 -11 22 -25 -8
-14 -5 -18 7 -10 12 7 17 30 11 51 -5 21 1 57 13 80 12 23 20 41 17 40 -3 -2
-21 -7 -39 -11z"/>
<path d="M922 1062 c-15 -10 -21 -28 -13 -40 25 -41 -11 -66 -42 -28 -27 34
-28 33 -17 -8 8 -30 -1 -57 -29 -85 -25 -25 -31 -41 -16 -42 14 0 8 -13 -14
-30 -22 -16 -28 -29 -13 -29 17 0 12 -21 -16 -67 -49 -79 -51 -93 -17 -94 40
-1 98 -52 104 -92 3 -22 19 -35 38 -31 22 4 29 -4 21 -25 -8 -20 -1 -31 21
-31 25 0 31 -12 23 -45 -7 -25 -6 -34 0 -20 6 14 27 25 46 25 43 0 128 94 110
123 -8 14 2 17 29 8 34 -11 43 -5 43 28 0 22 9 41 21 41 14 0 14 12 0 39 -30
56 -26 82 12 67 25 -10 29 -6 16 16 -10 15 -15 46 -13 68 4 30 -20 57 -85 98
-50 32 -91 70 -91 85 0 15 -20 28 -45 29 -25 0 -34 6 -20 11 14 6 25 19 25 29
0 23 -41 23 -78 0z m153 -161 c45 -32 86 -66 92 -76 8 -14 -122 -234 -179
-302 -3 -4 -50 31 -105 78 l-99 86 91 136 c105 158 95 154 200 78z"/>
<path d="M966 790 c-42 -88 -21 -111 44 -50 57 54 64 90 19 107 -21 8 -40 -9
-63 -57z"/>
<path d="M505 1007 c-29 -12 -34 -79 -7 -96 35 -21 84 14 78 55 -6 43 -30 57
-71 41z"/>
<path d="M1858 985 c-1 -8 -3 -82 -5 -165 -2 -87 -11 -149 -23 -147 -11 2 -21
-20 -21 -50 -1 -29 -9 -69 -18 -88 -9 -22 -7 -35 7 -35 12 0 22 18 22 40 0 22
10 40 21 40 12 0 16 8 10 19 -7 10 0 29 14 42 17 16 23 67 18 154 -4 76 2 138
15 151 12 12 22 29 22 38 0 20 -59 21 -62 1z"/>
<path d="M5253 895 c-21 -77 -14 -135 15 -135 37 0 45 28 36 112 -10 78 -34
89 -51 23z"/>
<path d="M0 850 c0 -27 11 -91 24 -141 20 -75 20 -94 -2 -108 -15 -9 -23 -27
-19 -40 6 -17 23 -12 56 14 l49 40 -44 105 c-56 133 -56 168 -4 154 22 -6 35
-2 29 8 -26 41 -89 18 -89 -32z"/>
<path d="M5165 855 c-54 -108 -52 -175 3 -175 55 0 72 52 31 93 -14 14 -14 37
0 74 24 64 -3 71 -34 8z"/>
<path d="M3900 860 c-26 -17 -26 -23 -1 -38 16 -11 31 -44 34 -75 2 -32 10
-79 16 -107 6 -27 20 -97 32 -155 12 -57 31 -110 42 -117 13 -8 17 2 11 24 -6
21 -17 119 -25 218 -10 139 -22 186 -51 212 -20 17 -31 38 -24 45 19 19 0 15
-34 -7z"/>
<path d="M2140 824 c0 -12 10 -28 21 -35 14 -8 10 -26 -13 -51 -43 -47 -29
-64 40 -47 73 18 68 63 -13 126 -21 17 -35 19 -35 7z"/>
<path d="M4263 802 c-11 -7 -19 -30 -17 -52 3 -28 -7 -39 -32 -37 -25 2 -33
-7 -25 -27 6 -16 11 -34 11 -39 0 -5 9 -4 21 4 11 7 34 1 50 -12 17 -14 36
-19 43 -12 7 7 0 13 -16 14 -15 0 -7 12 20 27 31 17 39 31 25 40 -33 20 -28
52 7 52 17 0 30 8 30 18 0 22 -90 40 -117 24z"/>
<path d="M2816 722 c-7 -46 -2 -55 28 -47 43 12 46 38 8 76 -24 23 -29 19 -36
-29z"/>
<path d="M2334 720 c11 -43 42 -71 59 -54 14 14 -30 94 -52 94 -9 0 -13 -18
-7 -40z"/>
<path d="M4575 552 c-50 -37 -44 -52 22 -52 71 0 89 17 53 52 -33 33 -31 33
-75 0z"/>
<path d="M4200 489 c0 -23 55 -67 68 -55 26 27 10 66 -28 66 -22 0 -40 -5 -40
-11z"/>
<path d="M2682 466 c-3 -37 86 -93 96 -61 4 14 18 31 29 39 12 8 14 21 5 30
-10 9 -21 5 -26 -9 -5 -14 -26 -25 -46 -25 -20 0 -41 11 -47 25 -7 18 -10 18
-11 1z"/>
<path d="M4440 425 c0 -14 14 -25 30 -25 17 0 30 -18 30 -41 0 -23 9 -36 20
-29 11 7 20 30 20 52 0 22 9 35 20 28 11 -7 20 -1 20 14 0 16 -26 26 -70 26
-43 0 -70 -10 -70 -25z"/>
<path d="M374 408 c-29 -30 -14 -103 24 -113 55 -15 86 13 79 67 -7 47 -72 76
-103 46z m81 -53 c-13 -38 -75 -43 -75 -6 0 18 17 31 42 31 24 0 38 -10 33
-25z"/>
<path d="M995 345 c-27 -32 -26 -39 9 -75 39 -40 39 -40 17 17 -18 49 -17 56
9 46 16 -6 30 -4 30 6 0 37 -35 39 -65 6z"/>
<path d="M1929 332 c-37 -27 -37 -29 16 -53 65 -30 84 -18 65 39 -15 49 -29
52 -81 14z"/>
<path d="M2497 322 c-13 -21 -36 -33 -51 -28 -14 6 -26 0 -26 -12 0 -12 27
-22 60 -22 51 0 60 8 60 50 0 60 -12 63 -43 12z"/>
<path d="M5287 268 c-18 -43 -36 -123 -39 -178 l-7 -100 30 128 c40 174 55
180 45 17 -10 -167 28 -185 65 -30 13 58 32 119 41 135 24 43 23 -124 -2 -189
-29 -76 7 -62 70 29 65 94 78 99 63 25 -10 -48 -7 -46 19 12 52 116 25 142
-46 45 l-64 -87 -6 113 c-8 149 -38 144 -80 -11 l-35 -127 3 135 c3 163 -13
187 -57 83z"/>
<path d="M5113 286 c-5 -10 -16 -73 -24 -142 -12 -107 -46 -173 -50 -99 -1 14
-18 61 -38 105 l-35 80 0 -120 c-1 -96 2 -106 13 -50 l13 70 16 -65 c27 -113
85 -87 101 47 17 132 24 131 50 -13 l20 -109 -10 110 c-16 178 -30 227 -56
186z"/>
<path d="M293 187 c-7 -51 -12 -116 -11 -145 l1 -52 15 50 c27 87 42 240 24
240 -9 0 -22 -42 -29 -93z"/>
<path d="M6170 207 c82 -85 184 -136 165 -84 -5 15 -24 26 -42 24 -18 -1 -33
8 -33 21 0 29 -72 93 -88 78 -6 -7 -27 1 -47 16 -19 15 1 -10 45 -55z"/>
<path d="M6875 221 c-19 -23 -26 -41 -16 -41 10 0 22 -16 27 -35 8 -31 10 -31
12 -1 1 18 16 36 33 40 26 5 27 12 5 42 -25 33 -28 33 -61 -5z"/>
<path d="M2730 100 c-7 -11 2 -40 19 -64 l31 -45 0 45 c0 25 12 44 29 44 16 0
34 9 41 20 7 12 -13 20 -48 20 -33 0 -65 -9 -72 -20z"/>
<path d="M5621 71 c-37 -27 -75 -45 -84 -39 -9 6 -17 1 -17 -11 0 -49 153 -23
177 30 40 88 22 92 -76 20z"/>
<path d="M2613 66 c-32 -32 -10 -66 42 -64 34 2 42 6 20 12 -20 5 -31 17 -25
26 13 21 -19 44 -37 26z"/>
</g>
</svg>
